<?xml version="1.0" standalone="no"?>
<!DOCTYPE svg PUBLIC "-//W3C//DTD SVG 20010904//EN"
 "http://www.w3.org/TR/2001/REC-SVG-20010904/DTD/svg10.dtd">
<svg version="1.0" xmlns="http://www.w3.org/2000/svg"
 width="109.000000pt" height="109.000000pt" viewBox="0 0 109.000000 109.000000"
 preserveAspectRatio="xMidYMid meet">
<metadata>
Created by potrace 1.11, written by Peter Selinger 2001-2013
</metadata>
<g transform="translate(0.000000,109.000000) scale(0.100000,-0.100000)"
fill="#000000" stroke="none">
<path d="M0 545 l0 -545 545 0 545 0 0 545 0 545 -545 0 -545 0 0 -545z m810
455 c13 -24 6 -40 -17 -40 -9 0 -22 -8 -30 -17 -8 -10 -12 -12 -8 -5 3 6 2 12
-4 12 -5 0 -11 -5 -13 -10 -2 -6 -11 -1 -21 11 -18 20 -18 21 2 14 18 -5 21
-2 21 24 0 28 3 31 30 31 19 0 33 -7 40 -20z m-100 -10 c0 -5 -4 -10 -10 -10
-5 0 -10 5 -10 10 0 6 5 10 10 10 6 0 10 -4 10 -10z m-580 -35 c0 -9 -6 -12
-15 -9 -8 4 -15 10 -15 15 0 5 7 9 15 9 8 0 15 -7 15 -15z m215 -5 c3 -5 1
-10 -4 -10 -6 0 -11 5 -11 10 0 6 2 10 4 10 3 0 8 -4 11 -10z m145 -90 c0 -5
-5 -10 -11 -10 -5 0 -7 5 -4 10 3 6 8 10 11 10 2 0 4 -4 4 -10z m-300 -25 c0
-9 -6 -12 -15 -9 -8 4 -12 10 -9 15 8 14 24 10 24 -6z m284 -9 c-3 -8 3 -19
15 -26 27 -14 27 -30 0 -23 -11 3 -25 17 -30 30 -12 32 -12 33 6 33 8 0 12 -6
9 -14z m281 -6 c3 -5 1 -10 -4 -10 -6 0 -11 5 -11 10 0 6 2 10 4 10 3 0 8 -4
11 -10z m-78 -30 c7 -11 9 -21 3 -25 -9 -6 -13 -1 -23 28 -9 23 5 22 20 -3z
m-407 -15 c7 -8 8 -15 2 -15 -5 0 -15 7 -22 15 -7 8 -8 15 -2 15 5 0 15 -7 22
-15z m519 -18 c0 -21 -1 -21 -9 -2 -12 28 -12 37 0 30 6 -3 10 -16 9 -28z
m-508 -17 c28 -16 23 -32 -6 -18 -14 6 -25 15 -25 20 0 11 7 10 31 -2z m287 1
c10 -6 10 -10 -1 -20 -12 -9 -18 -9 -29 2 -7 8 -20 16 -28 20 -8 3 -1 6 15 6
17 0 36 -3 43 -8z m191 -21 c19 0 20 -3 11 -20 -6 -11 -18 -20 -28 -20 -14 -1
-13 -4 6 -19 12 -11 22 -25 22 -33 0 -11 -2 -11 -9 0 -5 8 -27 14 -54 14 l-47
1 38 34 c24 22 33 36 25 39 -7 3 -13 13 -13 22 1 15 2 15 14 0 7 -10 23 -18
35 -18z m-426 -5 c-7 -21 -13 -19 -13 6 0 11 4 18 10 14 5 -3 7 -12 3 -20z
m372 -5 c3 -5 1 -10 -4 -10 -6 0 -11 5 -11 10 0 6 2 10 4 10 3 0 8 -4 11 -10z
m-401 -31 c-3 -5 2 -9 10 -9 23 0 20 -18 -9 -52 -14 -16 -25 -38 -25 -49 0
-19 -15 -26 -24 -10 -3 4 -16 6 -29 4 -18 -4 -30 3 -46 22 -25 32 -26 51 -5
85 l15 25 -7 -25 c-6 -22 -5 -23 9 -12 13 11 17 10 26 -5 10 -17 10 -17 11 2
1 20 1 20 15 1 18 -24 30 -15 16 12 -18 35 -14 42 19 31 16 -6 27 -15 24 -20z
m381 1 c-3 -5 -11 -10 -16 -10 -6 0 -7 5 -4 10 3 6 11 10 16 10 6 0 7 -4 4
-10z m-170 -70 c-3 -5 -11 -10 -16 -10 -6 0 -7 5 -4 10 3 6 11 10 16 10 6 0 7
-4 4 -10z m-149 -27 c-2 -9 -8 -19 -14 -21 -14 -4 -15 0 -6 22 8 21 23 20 20
-1z m372 -40 c4 -28 -8 -29 -31 -3 -23 27 -22 32 6 28 14 -2 23 -11 25 -25z
m44 19 c-7 -5 -10 -17 -7 -28 6 -19 6 -19 -9 0 -22 27 -20 36 7 36 15 0 18 -3
9 -8z m213 -24 c45 -16 50 -25 21 -43 -20 -13 -24 -23 -20 -41 5 -20 2 -24
-16 -24 -17 0 -21 -4 -17 -19 7 -26 -22 -36 -42 -15 -9 9 -11 14 -6 11 18 -9
35 7 37 36 2 17 6 23 12 17 6 -6 15 -10 20 -10 6 0 5 5 -1 11 -16 16 -4 39 21
39 17 1 16 3 -9 14 -16 8 -39 21 -50 31 l-20 17 20 -7 c11 -4 34 -12 50 -17z
m-153 -25 c14 -21 27 -49 31 -63 l6 -25 -20 24 c-10 13 -19 29 -19 36 0 6 -9
20 -20 30 -21 19 -26 35 -11 35 4 0 19 -17 33 -37z m-586 -14 c-3 -17 -6 -40
-6 -51 0 -17 -3 -18 -14 -9 -22 18 -31 72 -15 82 29 18 42 10 35 -22z m594
-150 c0 -4 -6 -9 -14 -12 -17 -7 -36 11 -29 29 4 10 9 11 24 1 10 -6 19 -15
19 -18z m-70 -39 c0 -5 -4 -10 -10 -10 -5 0 -10 5 -10 10 0 6 5 10 10 10 6 0
10 -4 10 -10z m-135 -81 c0 -8 4 -17 10 -21 5 -4 7 -9 5 -11 -8 -7 -174 -45
-179 -41 -7 7 31 44 40 39 4 -3 11 4 14 16 l7 21 19 -21 c23 -25 31 -27 23 -6
-4 8 -1 15 5 15 6 0 11 -5 11 -12 0 -6 3 -8 8 -4 7 7 8 11 11 37 2 16 26 5 26
-12z m90 11 c-3 -5 -11 -10 -16 -10 -6 0 -7 5 -4 10 3 6 11 10 16 10 6 0 7 -4
4 -10z m-482 -20 c-3 -12 -8 -19 -11 -16 -5 6 5 36 12 36 2 0 2 -9 -1 -20z
m-66 4 c-3 -4 -2 -15 4 -25 7 -15 6 -19 -6 -19 -8 0 -15 7 -15 15 0 8 -6 15
-12 15 -9 0 -8 4 2 10 17 11 37 14 27 4z m272 -34 c-10 -7 -49 -2 -49 5 0 2
14 3 31 3 17 -1 25 -4 18 -8z m-119 -15 c7 -8 9 -15 6 -15 -4 0 -14 7 -22 15
-9 8 -11 15 -6 15 5 0 15 -7 22 -15z m-80 -5 c18 -12 2 -12 -25 0 -13 6 -15 9
-5 9 8 0 22 -4 30 -9z m108 -118 c3 -9 -20 -11 -85 -10 -79 2 -81 2 -23 5 36
2 69 8 75 14 11 11 27 7 33 -9z"/>
</g>
</svg>
